# xmcd
#
# Track frame offsets:
#	150
#	22627
#	38115
#	63735
#	83892
#	102237
#	119430
#	133920
#	153377
#	173890
#	195285
#	218007
#	236272
#	252807
#	269110
#
# Disc length: 3790 seconds
#
# Revision: 1
# Processed by: cddbd v1.5PL3 Copyright (c) Steve Scherf et al.
# Submitted via: audiograbber 1.83.01
#
DISCID=c90ecc0f
DTITLE=Lillian Boutte - Having A Good Time
DYEAR=1989
DGENRE=Blues
TTITLE0=Mamma's Gone, Goodbye
TTITLE1=Smile
TTITLE2=Let ThemTalk
TTITLE3=I'm Having a Good Time
TTITLE4=Nuages
TTITLE5=Absolutely Positively
TTITLE6=That's The Way To Treat Your Woman
TTITLE7=Is You Is Or Is You Ain't My Baby
TTITLE8=Try a Little Tenderness
TTITLE9=Stagger Lee
TTITLE10=A Nightingale Sang in Berkeley Square
TTITLE11=You Brought A New Kind Of Love To Me
TTITLE12=You Send Me
TTITLE13=The Trouble With Me Is You
TTITLE14=Wolverine Blues
EXTD=
EXTT0=
EXTT1=
EXTT2=
EXTT3=
EXTT4=
EXTT5=
EXTT6=
EXTT7=
EXTT8=
EXTT9=
EXTT10=
EXTT11=
EXTT12=
EXTT13=
EXTT14=
PLAYORDER=
